<?xml version="1.0" encoding="UTF-8"?>
<svg id="Layer_2" data-name="Layer 2" xmlns="http://www.w3.org/2000/svg" xmlns:xlink="http://www.w3.org/1999/xlink" viewBox="0 0 810.89 191.89">
  <defs>
    <style>
      .cls-1 {
        fill: url(#linear-gradient);
      }
    </style>
    <linearGradient id="linear-gradient" x1="0" y1="95.95" x2="810.89" y2="95.95" gradientUnits="userSpaceOnUse">
      <stop offset="0" stop-color="#ef4765"/>
      <stop offset=".77" stop-color="#ff9a5a"/>
    </linearGradient>
  </defs>
  <g id="Layer_5" data-name="Layer 5">
    <path class="cls-1" d="m217.78,77.14h27.85c1.88,0,3.45.63,4.7,1.88,1.25,1.25,1.88,2.82,1.88,4.7s-.63,3.31-1.88,4.52c-1.25,1.22-2.82,1.82-4.7,1.82h-27.85c-1.88,0-3.45-.63-4.7-1.88-1.25-1.25-1.88-2.82-1.88-4.7s.63-3.31,1.88-4.52c1.25-1.21,2.82-1.82,4.7-1.82Zm12.57-14.69c2.04,0,3.7.69,4.99,2.06,1.29,1.37,1.94,3.08,1.94,5.11v52.3c0,1.1.21,2,.65,2.7.43.71,1.02,1.22,1.76,1.53.74.31,1.55.47,2.41.47.94,0,1.8-.18,2.59-.53.78-.35,1.68-.53,2.7-.53,1.1,0,2.1.51,3,1.53.9,1.02,1.35,2.43,1.35,4.23,0,2.19-1.2,3.99-3.58,5.41-2.39,1.41-4.96,2.12-7.7,2.12-1.65,0-3.47-.14-5.46-.41-2-.27-3.88-.94-5.64-2-1.76-1.06-3.23-2.68-4.41-4.88-1.18-2.19-1.76-5.21-1.76-9.05v-52.88c0-2.04.69-3.74,2.06-5.11s3.07-2.06,5.11-2.06Zm105.65,13.51c1.8,0,3.37.69,4.7,2.06,1.33,1.37,2,3.11,2,5.23,0,.55-.04,1.04-.12,1.47-.08.43-.2.84-.35,1.23l-17.98,48.42c-.55,1.57-1.53,2.76-2.94,3.58-1.41.82-2.9,1.12-4.47.88-2.66-.16-4.66-1.65-5.99-4.47l-11.63-33.49,3.06.12-10.93,33.38c-1.33,2.82-3.33,4.31-5.99,4.47-1.49.23-2.96-.06-4.41-.88-1.45-.82-2.45-2.02-3-3.58l-17.98-48.42c-.31-.86-.47-1.76-.47-2.7,0-1.88.63-3.56,1.88-5.05,1.25-1.49,2.98-2.23,5.17-2.23,1.49,0,2.82.35,4,1.06,1.18.71,2,1.84,2.47,3.41l14.22,38.55-2.94-.23,10.69-29.03c1.25-2.9,3.41-4.35,6.46-4.35,1.72,0,3.04.37,3.94,1.12.9.75,1.63,1.82,2.17,3.23l10.69,29.03-3.53.47,14.45-38.78c.94-2.98,3.21-4.47,6.82-4.47Zm52.26,61.14c-6.26,2.28-12.16,2.95-17.72,2.01-5.55-.94-10.38-3.2-14.48-6.8-4.1-3.59-7.18-8.22-9.25-13.89-2.41-6.63-3.13-12.76-2.14-18.42.99-5.65,3.19-10.52,6.63-14.61,3.43-4.08,7.58-7.01,12.44-8.78,3.75-1.37,7.59-1.89,11.5-1.56,3.91.33,7.65,1.37,11.2,3.11,3.55,1.75,6.73,4.12,9.53,7.1,2.79,2.98,4.92,6.46,6.36,10.44.57,1.79.39,3.48-.53,5.07-.92,1.59-2.27,2.7-4.04,3.34l-42.18,15.35-7.33-9.84,40.53-14.75-1.63,3.09-1.09-2.98c-.93-2.08-2.38-3.72-4.35-4.92-1.98-1.2-4.16-1.92-6.55-2.18-2.39-.26-4.72.03-7,.86s-4.16,1.85-5.86,3.13c-1.7,1.29-3,2.88-3.88,4.79s-1.31,4.19-1.26,6.84c.05,2.65.73,5.78,2.04,9.39,1.45,3.98,3.5,7.04,6.16,9.2,2.66,2.16,5.56,3.48,8.7,3.96,3.13.48,6.18.19,9.12-.88,2.72-.99,4.82-2,6.27-3.03,1.46-1.03,2.57-2.04,3.34-3.03.77-.99,1.47-1.85,2.12-2.59,1.08-1.15,2.21-1.93,3.39-2.36,1.62-.59,3.16-.53,4.63.19,1.47.72,2.47,1.81,3.01,3.28.72,1.99.35,4.17-1.12,6.54-1.33,2.32-3.5,4.71-6.51,7.19-3.02,2.47-6.37,4.38-10.05,5.72Zm58.2,1.84c-6.54,1.25-12.48.98-17.81-.83-5.33-1.81-9.74-4.81-13.22-9.01-3.48-4.2-5.78-9.26-6.92-15.19-1.33-6.92-1.06-13.1.81-18.52,1.87-5.42,4.82-9.88,8.86-13.37,4.04-3.49,8.6-5.72,13.67-6.69,3.92-.75,7.79-.66,11.6.29,3.81.94,7.33,2.56,10.56,4.85,3.23,2.29,5.99,5.13,8.28,8.52,2.28,3.39,3.83,7.16,4.62,11.32.28,1.86-.17,3.5-1.33,4.92-1.16,1.42-2.67,2.31-4.52,2.66l-44.09,8.46-5.68-10.88,42.36-8.12-2.1,2.8-.6-3.12c-.58-2.2-1.75-4.05-3.52-5.55-1.76-1.5-3.8-2.56-6.12-3.19-2.32-.63-4.67-.72-7.05-.26s-4.4,1.16-6.29,2.16c-1.88,1-3.42,2.37-4.6,4.11-1.18,1.74-1.96,3.93-2.33,6.55-.37,2.63-.2,5.82.52,9.59.8,4.15,2.34,7.51,4.62,10.06,2.28,2.55,4.94,4.32,7.96,5.29,3.02.98,6.07,1.17,9.15.58,2.85-.55,5.07-1.21,6.68-2,1.6-.79,2.86-1.61,3.78-2.46.91-.85,1.75-1.59,2.51-2.22,1.25-.96,2.49-1.56,3.73-1.79,1.69-.32,3.21-.02,4.54.92,1.34.94,2.15,2.18,2.45,3.72.4,2.08-.32,4.17-2.15,6.27-1.68,2.08-4.2,4.1-7.57,6.06-3.37,1.96-6.98,3.31-10.83,4.05Zm28.1-61.8h27.85c1.88,0,3.45.63,4.7,1.88,1.25,1.25,1.88,2.82,1.88,4.7s-.63,3.31-1.88,4.52c-1.25,1.22-2.82,1.82-4.7,1.82h-27.85c-1.88,0-3.45-.63-4.7-1.88-1.25-1.25-1.88-2.82-1.88-4.7s.63-3.31,1.88-4.52c1.25-1.21,2.82-1.82,4.7-1.82Zm12.57-14.69c2.04,0,3.7.69,4.99,2.06,1.29,1.37,1.94,3.08,1.94,5.11v52.3c0,1.1.21,2,.65,2.7.43.71,1.02,1.22,1.76,1.53.74.31,1.55.47,2.41.47.94,0,1.8-.18,2.59-.53.78-.35,1.68-.53,2.7-.53,1.1,0,2.1.51,3,1.53.9,1.02,1.35,2.43,1.35,4.23,0,2.19-1.2,3.99-3.58,5.41-2.39,1.41-4.96,2.12-7.7,2.12-1.65,0-3.47-.14-5.46-.41-2-.27-3.88-.94-5.64-2-1.76-1.06-3.23-2.68-4.41-4.88-1.17-2.19-1.76-5.21-1.76-9.05v-52.88c0-2.04.68-3.74,2.06-5.11,1.37-1.37,3.07-2.06,5.11-2.06Zm80.03,12.34c2.04,0,3.72.67,5.05,2,1.33,1.33,2,3.06,2,5.17v49.71c0,2.04-.67,3.74-2,5.11-1.33,1.37-3.02,2.06-5.05,2.06s-3.72-.69-5.05-2.06c-1.33-1.37-2-3.07-2-5.11v-5.76l2.59,1.06c0,1.02-.55,2.25-1.65,3.7-1.1,1.45-2.59,2.88-4.47,4.29-1.88,1.41-4.09,2.61-6.64,3.58-2.55.98-5.31,1.47-8.28,1.47-5.41,0-10.3-1.39-14.69-4.17-4.39-2.78-7.86-6.62-10.4-11.52-2.55-4.9-3.82-10.52-3.82-16.86s1.27-12.08,3.82-16.98c2.54-4.9,5.97-8.73,10.28-11.52,4.31-2.78,9.09-4.17,14.34-4.17,3.37,0,6.46.51,9.28,1.53,2.82,1.02,5.27,2.31,7.34,3.88,2.07,1.57,3.68,3.15,4.82,4.76,1.13,1.61,1.7,2.96,1.7,4.05l-4.23,1.53v-8.58c0-2.04.66-3.74,2-5.11,1.33-1.37,3.01-2.06,5.05-2.06Zm-23.74,52.3c3.45,0,6.46-.86,9.05-2.59,2.59-1.72,4.6-4.07,6.05-7.05,1.45-2.98,2.17-6.31,2.17-9.99s-.73-7.13-2.17-10.11c-1.45-2.98-3.47-5.33-6.05-7.05-2.59-1.72-5.6-2.59-9.05-2.59s-6.35.86-8.93,2.59c-2.59,1.72-4.6,4.07-6.05,7.05-1.45,2.98-2.17,6.35-2.17,10.11s.72,7.01,2.17,9.99c1.45,2.98,3.47,5.33,6.05,7.05,2.59,1.72,5.56,2.59,8.93,2.59Zm72.86-52.3c5.64,0,9.93,1.22,12.87,3.64,2.94,2.43,4.95,5.66,6.05,9.7,1.1,4.04,1.65,8.52,1.65,13.46v30.09c0,2.04-.67,3.74-2,5.11-1.33,1.37-3.02,2.06-5.05,2.06s-3.72-.69-5.05-2.06c-1.33-1.37-2-3.07-2-5.11v-30.09c0-2.59-.31-4.92-.94-6.99-.63-2.08-1.76-3.74-3.41-4.99-1.65-1.25-3.99-1.88-7.05-1.88s-5.52.63-7.64,1.88c-2.12,1.25-3.7,2.92-4.76,4.99-1.06,2.08-1.59,4.41-1.59,6.99v30.09c0,2.04-.67,3.74-2,5.11-1.33,1.37-3.02,2.06-5.05,2.06s-3.72-.69-5.05-2.06c-1.33-1.37-2-3.07-2-5.11V59.04c0-2.04.66-3.74,2-5.11,1.33-1.37,3.02-2.06,5.05-2.06s3.72.69,5.05,2.06c1.33,1.37,2,3.08,2,5.11v29.14l-1.76-.35c.71-1.33,1.68-2.76,2.94-4.29,1.25-1.53,2.78-2.96,4.58-4.29,1.8-1.33,3.8-2.41,5.99-3.23s4.58-1.23,7.17-1.23Zm90.61,32.67c0,6.43-1.43,12.09-4.29,16.98-2.86,4.9-6.7,8.72-11.52,11.46-4.82,2.74-10.21,4.11-16.16,4.11s-11.34-1.37-16.16-4.11c-4.82-2.74-8.66-6.56-11.52-11.46-2.86-4.9-4.29-10.56-4.29-16.98s1.43-12.08,4.29-16.98c2.86-4.9,6.7-8.73,11.52-11.52,4.82-2.78,10.2-4.17,16.16-4.17s11.34,1.39,16.16,4.17c4.82,2.78,8.66,6.62,11.52,11.52,2.86,4.9,4.29,10.56,4.29,16.98Zm-14.1,0c0-3.99-.8-7.46-2.41-10.4-1.61-2.94-3.76-5.23-6.46-6.87-2.7-1.65-5.7-2.47-8.99-2.47s-6.29.82-8.99,2.47c-2.7,1.65-4.86,3.94-6.46,6.87-1.61,2.94-2.41,6.41-2.41,10.4s.8,7.34,2.41,10.28c1.6,2.94,3.76,5.23,6.46,6.87s5.7,2.47,8.99,2.47,6.29-.82,8.99-2.47,4.86-3.94,6.46-6.87c1.6-2.94,2.41-6.36,2.41-10.28Zm35.49,24.21c0,2.04-.69,3.74-2.06,5.11s-3.08,2.06-5.11,2.06-3.6-.69-4.94-2.06c-1.33-1.37-2-3.07-2-5.11V59.04c0-2.04.68-3.74,2.06-5.11,1.37-1.37,3.07-2.06,5.11-2.06s3.7.69,4.99,2.06c1.29,1.37,1.94,3.08,1.94,5.11v72.63Zm16.33-63.34c-2.66,0-4.55-.43-5.64-1.29-1.1-.86-1.65-2.39-1.65-4.58v-2.23c0-2.27.61-3.82,1.82-4.64,1.21-.82,3.07-1.23,5.58-1.23,2.74,0,4.66.43,5.76,1.29,1.1.86,1.65,2.39,1.65,4.58v2.23c0,2.27-.59,3.82-1.76,4.64s-3.1,1.23-5.76,1.23Zm7.17,63.34c0,2.04-.67,3.74-2,5.11-1.33,1.37-3.02,2.06-5.05,2.06s-3.72-.69-5.05-2.06c-1.33-1.37-2-3.07-2-5.11v-48.53c0-2.04.66-3.74,2-5.11,1.33-1.37,3.01-2.06,5.05-2.06s3.72.69,5.05,2.06c1.33,1.37,2,3.08,2,5.11v48.53Zm36.19-56.88c4.46,0,8.36.47,11.69,1.41,3.33.94,5.91,2.25,7.76,3.94,1.84,1.69,2.76,3.7,2.76,6.05,0,1.57-.47,3.04-1.41,4.41-.94,1.37-2.31,2.06-4.11,2.06-1.25,0-2.29-.18-3.11-.53-.82-.35-1.55-.8-2.17-1.35-.63-.55-1.37-1.06-2.23-1.53-.78-.47-1.98-.84-3.58-1.12-1.61-.27-2.8-.41-3.58-.41-4,0-7.39.86-10.17,2.59-2.78,1.72-4.92,4.05-6.41,6.99-1.49,2.94-2.23,6.33-2.23,10.16s.76,7.11,2.29,10.05c1.53,2.94,3.64,5.27,6.35,6.99,2.7,1.72,5.82,2.59,9.34,2.59,1.96,0,3.64-.12,5.05-.35,1.41-.24,2.59-.59,3.53-1.06,1.1-.63,2.07-1.29,2.94-2,.86-.71,2.15-1.06,3.88-1.06,2.04,0,3.6.65,4.7,1.94,1.1,1.29,1.65,2.88,1.65,4.76s-1.1,3.74-3.29,5.35c-2.19,1.61-5.07,2.9-8.64,3.88-3.57.98-7.42,1.47-11.58,1.47-6.19,0-11.56-1.43-16.1-4.29-4.54-2.86-8.05-6.76-10.52-11.69-2.47-4.94-3.7-10.46-3.7-16.57,0-6.42,1.31-12.08,3.94-16.98,2.62-4.9,6.27-8.73,10.93-11.52,4.66-2.78,10.01-4.17,16.04-4.17ZM92.85,99.37c0,9.33-2.08,17.55-6.23,24.66-4.15,7.11-9.73,12.66-16.73,16.64-7,3.98-14.82,5.97-23.47,5.97s-16.47-1.99-23.47-5.97c-7-3.98-12.57-9.53-16.73-16.64-4.15-7.11-6.23-15.33-6.23-24.66s2.07-17.55,6.23-24.66c4.15-7.11,9.73-12.69,16.73-16.73,7-4.04,14.82-6.06,23.47-6.06s16.47,2.02,23.47,6.06c7,4.04,12.57,9.62,16.73,16.73,4.15,7.11,6.23,15.33,6.23,24.66Zm-20.48,0c0-5.8-1.17-10.84-3.5-15.11-2.33-4.27-5.46-7.6-9.39-9.98-3.93-2.39-8.28-3.58-13.06-3.58s-9.13,1.19-13.06,3.58c-3.93,2.39-7.06,5.72-9.39,9.98-2.33,4.27-3.5,9.3-3.5,15.11s1.17,10.67,3.5,14.93c2.33,4.27,5.46,7.6,9.39,9.98,3.93,2.39,8.28,3.59,13.06,3.59s9.13-1.2,13.06-3.59c3.93-2.39,7.05-5.72,9.39-9.98,2.33-4.27,3.5-9.24,3.5-14.93Zm113.33,0c0,9.33-2.08,17.55-6.23,24.66-4.15,7.11-9.73,12.66-16.73,16.64-7,3.98-14.82,5.97-23.47,5.97s-16.47-1.99-23.47-5.97c-7-3.98-12.57-9.53-16.73-16.64-4.15-7.11-6.23-15.33-6.23-24.66s2.07-17.55,6.23-24.66c4.15-7.11,9.73-12.69,16.73-16.73,7-4.04,14.82-6.06,23.47-6.06s16.47,2.02,23.47,6.06c7,4.04,12.57,9.62,16.73,16.73,4.15,7.11,6.23,15.33,6.23,24.66Zm-20.48,0c0-5.8-1.17-10.84-3.5-15.11-2.33-4.27-5.46-7.6-9.39-9.98-3.93-2.39-8.28-3.58-13.06-3.58s-9.13,1.19-13.06,3.58-7.06,5.72-9.39,9.98c-2.33,4.27-3.5,9.3-3.5,15.11s1.17,10.67,3.5,14.93c2.33,4.27,5.46,7.6,9.39,9.98s8.28,3.59,13.06,3.59,9.13-1.2,13.06-3.59c3.93-2.39,7.05-5.72,9.39-9.98,2.33-4.27,3.5-9.24,3.5-14.93Zm-49.9,56.26s-10.49-6.54-14.88-14.54c-5.45-9.93-7.52,5.01-7.52,5.01l-.64-4.37s-2.25-7.79-7.41-.26c-5.16,7.53-14.66,13.93-14.66,13.93,0,0-1.59.8-2.26,4.34-.66,3.54,9.34,12.01,15.76,16.21,6.42,4.21,8.81,15.94,8.81,15.94l.26-.81s2.66-11.73,9.08-15.94c6.42-4.21,16.57-11.5,15.9-15.04-.66-3.54-2.43-4.48-2.43-4.48ZM93.25,0c-12.08.73-1.52,52.7-1.52,52.7,0,0,13.6-53.43,1.52-52.7Zm-5.28,62.57s-16.86-34.73-29.8-30.12c-7.35,2.62-9.8,8,4.98,13.49,14.78,5.5,24.82,16.62,24.82,16.62Zm2.81-.36S80.82,6.07,59.24,11.42c-6.19,1.53-11.25,9.29,4.1,15.76,16.85,7.1,27.44,35.03,27.44,35.03Zm29.7-16.26c14.78-5.5,12.33-10.87,4.98-13.49-12.94-4.61-29.8,30.12-29.8,30.12,0,0,10.04-11.13,24.82-16.62Zm-.19-18.77c15.35-6.47,10.29-14.23,4.1-15.76-21.58-5.35-31.54,50.79-31.54,50.79,0,0,10.59-27.93,27.44-35.03Z"/>
  </g>
</svg>